<svg xmlns="http://www.w3.org/2000/svg" width="79.182" height="50.018" viewBox="0 0 79.182 50.018">
  <g id="sdu-logo-white" transform="translate(0 0)">
    <g id="Group_1" data-name="Group 1">
      <path id="Path_1" data-name="Path 1" d="M9.827,18.449A9.224,9.224,0,0,1,9.856,0h6.979a4.231,4.231,0,0,0,0,6.151H9.855a3.075,3.075,0,0,0,0,6.149H23.288a9.225,9.225,0,0,1,0,18.45H3.708A3.074,3.074,0,0,1,3.693,24.6H23.288a3.075,3.075,0,0,0,0-6.15Z" fill-rule="evenodd"/>
    </g>
    <g id="Group_2" data-name="Group 2">
      <path id="Path_2" data-name="Path 2" d="M39.909,0A15.371,15.371,0,0,1,55.276,15.374c0,.112,0,.224,0,.336l0,.005a8.88,8.88,0,1,0,17.759,0V3.074a3.073,3.073,0,1,1,6.146,0V15.715a15.026,15.026,0,0,1-27.066,9,15.339,15.339,0,0,1-12.207,6.036H28.86a10.8,10.8,0,0,0,4.754-6.15h6.294a9.223,9.223,0,0,0,9.22-9.11c0-.143,0-.3-.006-.462A9.222,9.222,0,0,0,39.909,6.15H20.1A3.075,3.075,0,0,1,20.1,0Z" fill-rule="evenodd"/>
    </g>
    <g id="Group_3" data-name="Group 3">
      <path id="Path_3" data-name="Path 3" d="M49.493,1.622a3.073,3.073,0,0,1,5.782,1.453V8.681A16.822,16.822,0,0,0,49.493,1.622Z" fill-rule="evenodd"/>
    </g>
    <path id="Path_4" data-name="Path 4" d="M61.264,15.374a3.074,3.074,0,1,0,6.148,0V3.074A3.063,3.063,0,0,0,66.55.94a6.6,6.6,0,0,1-5.286,4.616Z" fill-rule="evenodd"/>
    <path id="Path_5" data-name="Path 5" d="M.276,40.885l.01-1.223.41,0,.076.8.091.118a1.348,1.348,0,0,0,.349.123,2.094,2.094,0,0,0,.428.043,1.191,1.191,0,0,0,.771-.22.735.735,0,0,0,.288-.606q0-.534-.99-.967l-.166-.072A2.748,2.748,0,0,1,.6,38.3a1.023,1.023,0,0,1-.225-.694,1.2,1.2,0,0,1,.447-.962,1.756,1.756,0,0,1,1.169-.36,3.488,3.488,0,0,1,.585.053,4.562,4.562,0,0,1,.6.153l-.008,1.078-.363,0L2.7,36.9l-.1-.116a1,1,0,0,0-.288-.112,1.533,1.533,0,0,0-.339-.04,1,1,0,0,0-.691.221.78.78,0,0,0-.26.611.647.647,0,0,0,.175.469,2.669,2.669,0,0,0,.793.453c.038.017.1.04.173.071a2.609,2.609,0,0,1,.872.509.972.972,0,0,1,.226.344,1.136,1.136,0,0,1,.073.423,1.223,1.223,0,0,1-.5,1.009,2.056,2.056,0,0,1-1.31.376,3.984,3.984,0,0,1-.683-.062A2.593,2.593,0,0,1,.276,40.885Z" fill-rule="evenodd"/>
    <path id="Path_6" data-name="Path 6" d="M4.629,36.389l1.7.014v.278l-.432.038-.12.1-.019,2.517a1.568,1.568,0,0,0,.285,1.062,1.21,1.21,0,0,0,.943.335,1.208,1.208,0,0,0,.944-.324,1.565,1.565,0,0,0,.3-1.054l.019-2.468-.131-.128-.417-.064,0-.279,1.469.012,0,.277-.419.058-.126.126-.019,2.53a3.136,3.136,0,0,1-.077.764,1.221,1.221,0,0,1-.238.46,1.367,1.367,0,0,1-.588.384,2.442,2.442,0,0,1-.855.134A2.406,2.406,0,0,1,6,41.012a1.356,1.356,0,0,1-.581-.392,1.209,1.209,0,0,1-.232-.464,3.186,3.186,0,0,1-.064-.766l.02-2.579-.118-.1-.4-.043Z" fill-rule="evenodd"/>
    <path id="Path_7" data-name="Path 7" d="M10.127,41.1l0-.284.439-.031.119-.1.03-3.831-.117-.1-.438-.045,0-.277,1.7.012,0,.279-.4.036-.121.1-.03,3.93,1.572.012.1-.112.126-.834.36,0-.009,1.267Z" fill-rule="evenodd"/>
    <path id="Path_8" data-name="Path 8" d="M14.482,41.133l0-.284.395-.031.119-.1.03-3.831-.118-.1-.393-.045,0-.277,3.331.026-.007,1.014-.391,0-.094-.592-.1-.105-1.608-.014-.014,1.76,1.141.009.1-.1.073-.507.328,0-.012,1.533-.329,0-.064-.5-.1-.106-1.141-.008-.014,1.949,1.863.015.1-.112.125-.7.359,0-.008,1.134Z" fill-rule="evenodd"/>
    <path id="Path_9" data-name="Path 9" d="M18.9,36.5l1.617.014,0,.277-.4.039-.072.077,1.051,1.921,1.182-1.849-.064-.1-.423-.077,0-.279,1.419.012,0,.277-.425.085L21.317,39.2l-.012,1.566.112.1.471.036,0,.286-1.8-.015,0-.284.472-.03.114-.1.011-1.473-1.367-2.44-.423-.071Z" fill-rule="evenodd"/>
    <path id="Path_10" data-name="Path 10" d="M23.938,41.206l0-.284.417-.052.127-.132.03-3.777-.088-.1-.46-.046V36.54l1.477.01v.187l1.28,3.5,1.347-3.457,0-.214,1.487.012,0,.279-.439.036-.084.1L29,40.828l.084.1.438.038,0,.285-1.66-.012,0-.286.458-.029.068-.1.031-3.924-1.68,4.329-.3,0-1.552-4.282-.03,3.8.125.133.425.058,0,.286Z" fill-rule="evenodd"/>
    <path id="Path_11" data-name="Path 11" d="M32.557,37.277l-.7,1.925,1.4.01Zm-.1-.731.458,0,1.633,4.367.418.088,0,.286-1.58-.013,0-.284.432-.031.052-.1-.493-1.331-1.64-.014-.5,1.325.07.1.452.038,0,.286-1.362-.01,0-.286.4-.082Z" fill-rule="evenodd"/>
    <path id="Path_12" data-name="Path 12" d="M35.782,41.3l0-.284.425-.052.127-.132.028-3.777-.125-.1-.444-.045,0-.277,1.308.009v.174L39.449,40.4l.025-3.271L39.35,37l-.417-.066,0-.277,1.46.01,0,.279L39.974,37l-.125.124-.033,4.2-.458,0L36.74,37.355l-.027,3.478.124.134.418.057,0,.286Z" fill-rule="evenodd"/>
    <path id="Path_13" data-name="Path 13" d="M45.263,37.022l-.031,4.029.55,0a1.855,1.855,0,0,0,1.424-.491,2.685,2.685,0,0,0,.027-3.03,1.86,1.86,0,0,0-1.419-.509Zm.58-.314a2.717,2.717,0,0,1,1.89.625,2.2,2.2,0,0,1,.658,1.725,2.638,2.638,0,0,1-.226,1.1,2.1,2.1,0,0,1-.657.8,1.945,1.945,0,0,1-.691.326,4.166,4.166,0,0,1-1.01.092l-1.715-.012,0-.286.4-.03.118-.1.029-3.832-.117-.1-.393-.044v-.279Z" fill-rule="evenodd"/>
    <path id="Path_14" data-name="Path 14" d="M49.744,41.405l0-.284.395-.031.119-.1.029-3.831-.117-.1-.393-.045,0-.277,3.331.026L53.1,37.779l-.391,0-.093-.592-.1-.105-1.608-.014-.015,1.76,1.141.009.1-.1.073-.507.328,0-.012,1.533-.329,0-.064-.5-.1-.106L50.9,39.146l-.014,1.949,1.864.016.1-.112.125-.7.359,0-.008,1.135Z" fill-rule="evenodd"/>
    <path id="Path_15" data-name="Path 15" d="M54.569,41.443l0-.284.417-.053.128-.131.029-3.777-.089-.1-.461-.046,0-.277,1.476.01,0,.186,1.281,3.5L58.7,37.02l0-.214,1.488.012,0,.279-.439.036-.084.1-.03,3.831.084.1.437.038,0,.284-1.66-.012,0-.286.458-.029.068-.1.031-3.924-1.68,4.329-.3,0L55.522,37.18l-.03,3.8.125.134.424.058,0,.286Z" fill-rule="evenodd"/>
    <path id="Path_16" data-name="Path 16" d="M61.457,41.5l0-.284.445-.031.119-.1.03-3.831-.118-.1-.444-.045,0-.277,1.765.012,0,.279-.444.036-.12.1-.03,3.831.119.1.445.038,0,.286Z" fill-rule="evenodd"/>
    <path id="Path_17" data-name="Path 17" d="M65.7,37.18l-.014,1.936c.069,0,.136.005.2.007s.126,0,.183,0a1.531,1.531,0,0,0,.942-.22.864.864,0,0,0,.3-.727.9.9,0,0,0-.3-.755,1.615,1.615,0,0,0-.975-.242Zm-1.135-.328,1.772.015a2.1,2.1,0,0,1,1.261.316,1.1,1.1,0,0,1,.4.945,1.022,1.022,0,0,1-.287.74,1.63,1.63,0,0,1-.846.406,1.554,1.554,0,0,1,.437.189.86.86,0,0,1,.275.285,1.816,1.816,0,0,1,.193.551,3.564,3.564,0,0,0,.126.482.692.692,0,0,0,.285.39,1.307,1.307,0,0,0,.613.108h.061l0,.266c-.1.02-.2.033-.288.043a2.155,2.155,0,0,1-.252.012,1.467,1.467,0,0,1-.412-.053.73.73,0,0,1-.289-.153,1.706,1.706,0,0,1-.4-.851c-.038-.153-.071-.267-.095-.341a1.113,1.113,0,0,0-.372-.591,1.261,1.261,0,0,0-.712-.168c-.069,0-.178,0-.326.008l-.023,0-.014,1.654.119.1.4.038,0,.284-1.654-.012,0-.286.4-.031.118-.1.03-3.832-.118-.1-.394-.043Z" fill-rule="evenodd"/>
    <path id="Path_18" data-name="Path 18" d="M69.858,41.561l0-.284.395-.031.119-.1.03-3.831-.118-.1-.393-.045,0-.277,3.33.025-.008,1.015-.391,0-.092-.591-.1-.105-1.608-.014-.015,1.76,1.141.009.1-.1.073-.507.328,0-.012,1.533-.329,0-.064-.5-.1-.106L71.013,39.3,71,41.25l1.864.015.1-.112.125-.7.359,0-.008,1.134Z" fill-rule="evenodd"/>
    <path id="Path_19" data-name="Path 19" d="M74.655,41.6l0-.284.439-.031.118-.1.03-3.831-.117-.1-.438-.045,0-.277,1.7.012,0,.279-.4.036-.121.1-.031,3.929,1.573.012.1-.112.125-.834.36,0-.009,1.267Z" fill-rule="evenodd"/>
    <path id="Path_20" data-name="Path 20" d="M0,44.757l1.7.014,0,.278-.432.038-.119.1L1.134,47.7a1.565,1.565,0,0,0,.285,1.061,1.209,1.209,0,0,0,.943.336,1.208,1.208,0,0,0,.944-.324,1.565,1.565,0,0,0,.3-1.054l.019-2.468L3.5,45.124l-.417-.063,0-.279,1.47.012,0,.277-.417.058L4,45.255l-.019,2.53a3.143,3.143,0,0,1-.077.764,1.221,1.221,0,0,1-.238.46,1.37,1.37,0,0,1-.589.384,2.439,2.439,0,0,1-.855.134,2.406,2.406,0,0,1-.855-.149,1.357,1.357,0,0,1-.581-.392,1.2,1.2,0,0,1-.232-.464A3.185,3.185,0,0,1,.5,47.757l.02-2.578L.4,45.08,0,45.037Z" fill-rule="evenodd"/>
    <path id="Path_21" data-name="Path 21" d="M9.129,49.5l0-.284.425-.052.127-.132.029-3.777-.124-.1-.445-.045v-.278l1.308.009v.174L12.8,48.593l.025-3.271L12.7,45.2l-.418-.065,0-.277,1.46.01,0,.279-.418.059-.126.124-.032,4.2-.459,0-2.618-3.971-.027,3.477.125.134.417.057,0,.286Z" fill-rule="evenodd"/>
    <path id="Path_22" data-name="Path 22" d="M18.442,49.568l0-.284.445-.031.119-.1.029-3.831-.118-.1-.444-.046,0-.277,1.765.013,0,.279-.445.036-.119.1-.03,3.831.119.1.445.038,0,.286Z" fill-rule="evenodd"/>
    <path id="Path_23" data-name="Path 23" d="M24.639,44.948l1.62.014,0,.277-.4.038-.075.1,1.28,3.516,1.283-3.5-.067-.1-.431-.044v-.279l1.385.012,0,.277-.432.079-1.632,4.329-.483,0-1.6-4.354-.444-.085Z" fill-rule="evenodd"/>
    <path id="Path_24" data-name="Path 24" d="M33.6,49.685l0-.284L34,49.369l.119-.1.029-3.831-.118-.1-.393-.045,0-.278,3.331.026-.008,1.015-.391,0-.093-.591-.1-.106-1.609-.013L34.761,47.1l1.141.009.1-.1.072-.507.328,0-.012,1.533-.329,0-.064-.5-.1-.106-1.141-.008-.016,1.949,1.864.016.1-.112.125-.7.36,0-.008,1.135Z" fill-rule="evenodd"/>
    <path id="Path_25" data-name="Path 25" d="M43.092,45.409l-.015,1.936c.07,0,.136.005.2.007l.182,0a1.538,1.538,0,0,0,.942-.22.865.865,0,0,0,.3-.727.889.889,0,0,0-.3-.755,1.614,1.614,0,0,0-.975-.241Zm-1.135-.328,1.772.014a2.109,2.109,0,0,1,1.262.317,1.1,1.1,0,0,1,.4.945,1.018,1.018,0,0,1-.287.739,1.62,1.62,0,0,1-.844.406,1.578,1.578,0,0,1,.436.189.848.848,0,0,1,.275.285,1.806,1.806,0,0,1,.193.552,3.717,3.717,0,0,0,.126.482.7.7,0,0,0,.286.391,1.313,1.313,0,0,0,.613.108h.062l0,.266c-.1.02-.2.033-.289.043a2.161,2.161,0,0,1-.251.014,1.467,1.467,0,0,1-.413-.053.722.722,0,0,1-.288-.153,1.7,1.7,0,0,1-.4-.851c-.04-.153-.072-.267-.1-.342a1.11,1.11,0,0,0-.371-.591,1.268,1.268,0,0,0-.713-.168c-.067,0-.176,0-.326.008l-.024,0-.012,1.655.118.1.4.038,0,.285-1.654-.012,0-.286.395-.031.119-.1.029-3.831-.118-.1-.393-.043Z" fill-rule="evenodd"/>
    <path id="Path_26" data-name="Path 26" d="M50.912,49.679l.01-1.223.41,0,.077.8.09.119a1.4,1.4,0,0,0,.349.122,2.1,2.1,0,0,0,.428.044,1.185,1.185,0,0,0,.77-.22.735.735,0,0,0,.287-.607c0-.356-.326-.678-.99-.967-.071-.032-.127-.056-.166-.073a2.753,2.753,0,0,1-.94-.582,1.025,1.025,0,0,1-.226-.694,1.2,1.2,0,0,1,.448-.962,1.751,1.751,0,0,1,1.169-.36,3.588,3.588,0,0,1,.585.053,4.612,4.612,0,0,1,.6.152L53.8,46.363l-.363,0-.1-.664-.1-.116a1.032,1.032,0,0,0-.287-.113,1.551,1.551,0,0,0-.341-.039.993.993,0,0,0-.69.221.775.775,0,0,0-.26.61.646.646,0,0,0,.175.468,2.686,2.686,0,0,0,.793.453c.038.017.1.04.173.071a2.621,2.621,0,0,1,.872.509.987.987,0,0,1,.227.344,1.123,1.123,0,0,1,.074.423,1.226,1.226,0,0,1-.5,1.01,2.053,2.053,0,0,1-1.308.375,3.945,3.945,0,0,1-.685-.062A2.611,2.611,0,0,1,50.912,49.679Z" fill-rule="evenodd"/>
    <path id="Path_27" data-name="Path 27" d="M58.916,49.88l0-.284.445-.031.119-.1.029-3.831-.117-.1-.444-.045,0-.277,1.764.014,0,.279-.444.036-.121.1-.029,3.831.119.1.445.037,0,.286Z" fill-rule="evenodd"/>
    <path id="Path_28" data-name="Path 28" d="M65.386,45.262l3.928.031-.009,1.069-.384,0-.09-.646-.1-.106L67.671,45.6l-.029,3.929.114.1.468.036,0,.286-1.817-.015,0-.284.466-.031.12-.1.029-3.929-1.06-.009-.1.1-.1.645-.38,0Z" fill-rule="evenodd"/>
    <g id="Group_4" data-name="Group 4">
      <path id="Path_29" data-name="Path 29" d="M73.645,45.326l1.617.014,0,.277-.4.039-.071.077,1.05,1.92L77.023,45.8l-.064-.1-.424-.078,0-.279,1.42.012,0,.277-.426.085-1.465,2.305-.012,1.566.112.1.471.037,0,.286L74.835,50l0-.284.472-.03.113-.1.012-1.473-1.367-2.44-.424-.071Z" fill-rule="evenodd"/>
    </g>
    <path id="Path_30" data-name="Path 30" d="M44.353,10.994c-.078-.175-.906-.428-1.041-.467a4.986,4.986,0,0,0-2.394-.078,5.259,5.259,0,0,0-.857.273c.039.078.35.458.419.556l.224.263c.185.224.613.759.779.925l.33.369a.77.77,0,0,0,.166-.107.984.984,0,0,1,.156-.126c.058-.049.1-.078.156-.127a.822.822,0,0,0,.146-.116l.311-.234c.321-.243.593-.457.934-.71A6.323,6.323,0,0,1,44.353,10.994Z" fill-rule="evenodd"/>
    <path id="Path_31" data-name="Path 31" d="M43.662,15.493a2.563,2.563,0,0,0-.37-.429l-.389-.409-.477.448a.846.846,0,0,1-.106.088c-.029.029-.049.059-.088.1s-.078.049-.107.1a5.138,5.138,0,0,0,.75.779l.632-.535.049-.049A.483.483,0,0,0,43.662,15.493Z" fill-rule="evenodd"/>
    <path id="Path_32" data-name="Path 32" d="M42.543,16.486a2.7,2.7,0,0,0-.351-.409,2.884,2.884,0,0,0-.38-.389,4.794,4.794,0,0,0-.458.438,1.094,1.094,0,0,1-.1.117l-.224.224c-.038.049-.068.049-.116.107a3.146,3.146,0,0,0,.526.584.888.888,0,0,0,.194.175c.058-.02.068-.059.117-.107C41.93,17.041,42.4,16.662,42.543,16.486Z" fill-rule="evenodd"/>
    <path id="Path_33" data-name="Path 33" d="M42.65,14.373a1.238,1.238,0,0,0-.1-.127c-.039-.029-.029-.029-.058-.068l-.058-.058-.642-.749a8.474,8.474,0,0,0-.672.613c-.049.049-.117.079-.146.166l.525.6a2.343,2.343,0,0,0,.361.331Z" fill-rule="evenodd"/>
    <path id="Path_34" data-name="Path 34" d="M41.531,15.347c-.166-.234-.331-.38-.5-.594a2.38,2.38,0,0,0-.321-.36,1.669,1.669,0,0,0-.243.214L40,15.084a1.464,1.464,0,0,0-.234.253,1.151,1.151,0,0,0,.195.234c.068.068.136.175.2.234a3.589,3.589,0,0,0,.428.438l.487-.438A5.139,5.139,0,0,0,41.531,15.347Z" fill-rule="evenodd"/>
    <path id="Path_35" data-name="Path 35" d="M41.317,17.664a1.644,1.644,0,0,0-.166-.2l-.263-.293a1.831,1.831,0,0,0-.282-.273.739.739,0,0,1-.116.136c-.137.136-.35.38-.439.458l-.127.146a.2.2,0,0,1-.068.058l-.487.555c-.029.029-.039.029-.058.058s-.029.049-.058.068a5.977,5.977,0,0,0-.583.731c.02.019,0,.01.02.019a4.093,4.093,0,0,0,.729.507c.039,0,.136-.117.156-.146l.3-.341c.078-.068.1-.117.166-.175Z" fill-rule="evenodd"/>
    <path id="Path_36" data-name="Path 36" d="M46.183,17.976l-1.14-1.1c-.232-.214-.719-.741-.826-.838a3.874,3.874,0,0,0-.283-.283.59.59,0,0,0-.1.069,6.856,6.856,0,0,0-.663.642,3.106,3.106,0,0,0,.439.448,1.709,1.709,0,0,0,.145.146c.185.165.594.575.759.7.116.1.4.38.535.487l.564.468A2.693,2.693,0,0,0,46.183,17.976Z" fill-rule="evenodd"/>
    <path id="Path_37" data-name="Path 37" d="M40.3,16.564a1.853,1.853,0,0,0-.282-.38,4.042,4.042,0,0,0-.535-.584c-.029.059-.175.175-.234.253l-.6.662c-.175.175-.35.4-.524.584a.423.423,0,0,0-.069.068,1.621,1.621,0,0,0-.117.136,2.234,2.234,0,0,1-.35.4,1.865,1.865,0,0,0,.293.516c.077.1.31.38.35.458a1.71,1.71,0,0,0,.34-.3l.117-.146a5.007,5.007,0,0,1,.38-.409.453.453,0,0,0,.059-.068,1.589,1.589,0,0,1,.126-.136l.126-.127.652-.662A1.747,1.747,0,0,1,40.3,16.564Z" fill-rule="evenodd"/>
    <path id="Path_38" data-name="Path 38" d="M41.56,13.088c-.039-.088-1.3-1.83-1.518-2.151-.038-.058-.078-.1-.107-.147a3.327,3.327,0,0,0-1.147.731l.223.292c.389.468.768.964,1.177,1.451l.5.565C40.792,13.779,41.385,13.205,41.56,13.088Z" fill-rule="evenodd"/>
    <path id="Path_39" data-name="Path 39" d="M45.219,19.135c-.029-.068-.1-.107-.136-.156l-.467-.429-.146-.146-.224-.214c-.125-.107-.165-.156-.232-.215-.214-.194-.594-.633-.8-.828a1.619,1.619,0,0,1-.234-.223.44.44,0,0,0-.166-.136c-.117.126-.8.779-.846.876a3.729,3.729,0,0,0,.556.565c.038.038.058.068.087.1l.5.458c.04.029.049.059.088.088l1,.876c.058.039.067.039.127.01A5.673,5.673,0,0,0,45,19.3Z" fill-rule="evenodd"/>
    <path id="Path_40" data-name="Path 40" d="M46.494,13.312a3.843,3.843,0,0,0-.691-1.13,1.942,1.942,0,0,0-.33.244l-.808.682c-.195.165-.652.526-.818.692l-.321.272c-.077.078-.252.233-.3.3a1.348,1.348,0,0,0,.273.3l.292.3c.058.058.156.127.185.205.127-.04,1.061-.808,1.245-.955a3.67,3.67,0,0,1,.312-.234l.642-.448c.049-.038.107-.077.156-.116A1.6,1.6,0,0,1,46.494,13.312Z" fill-rule="evenodd"/>
    <path id="Path_41" data-name="Path 41" d="M40.431,14.052a.382.382,0,0,0-.1-.156l-.574-.75a12.164,12.164,0,0,1-1.031-1.588,4.069,4.069,0,0,0-1.051,1.286c.03.067.643.808.691.875.127.147.993,1.208,1.09,1.257l.253-.224a1.305,1.305,0,0,1,.136-.106Z" fill-rule="evenodd"/>
    <path id="Path_42" data-name="Path 42" d="M43.691,20.03l-.243-.253c-.1-.087-.176-.166-.263-.253l-.574-.564a.244.244,0,0,0-.069-.069,6.289,6.289,0,0,1-.515-.506.442.442,0,0,0-.049-.068c-.029-.029-.048-.039-.068-.058-.058-.058-.205-.234-.283-.253a1.568,1.568,0,0,1-.214.225c-.088.068-.137.165-.224.233s-.536.6-.642.72a1.181,1.181,0,0,1-.107.117c-.049.049-.059.068-.107.117a6.32,6.32,0,0,0-.4.507,4.737,4.737,0,0,0,.837.283,5,5,0,0,0,2.042.078A3.118,3.118,0,0,0,43.691,20.03Z" fill-rule="evenodd"/>
    <path id="Path_43" data-name="Path 43" d="M43.73,11.686c-.4.331-.817.711-1.206,1.021l-.448.39a1.293,1.293,0,0,0,.195.273l.691.731a1.7,1.7,0,0,0,.34-.264l.341-.253c.117-.078.234-.166.341-.254l1.644-1.2a.177.177,0,0,1,.088-.058,4,4,0,0,0-.487-.507.465.465,0,0,0-.078-.059,2.525,2.525,0,0,0-.661-.458Z" fill-rule="evenodd"/>
    <path id="Path_44" data-name="Path 44" d="M39.215,15.23a2.536,2.536,0,0,0-.195-.283c-.321-.477-.682-.953-1-1.431-.068-.1-.137-.194-.2-.292-.029-.038-.069-.1-.1-.136a.351.351,0,0,0-.048-.068c-.01-.01-.03-.04-.03-.04l-.048-.038a5.249,5.249,0,0,0-.234.505,4.679,4.679,0,0,0-.185.555,4.877,4.877,0,0,0-.186,1.315,4.809,4.809,0,0,0,.35,1.84l.234-.234a1.779,1.779,0,0,0,.224-.243l.477-.487a1.825,1.825,0,0,1,.233-.243c.029-.029.029-.038.058-.058s.029-.04.058-.069l.476-.477Z" fill-rule="evenodd"/>
    <path id="Path_45" data-name="Path 45" d="M46.562,13.478c-.1.049-.73.594-.876.711a.389.389,0,0,1-.068.058l-1.342,1.2c.038.069.535.545.652.653l.886.828a.426.426,0,0,1,.077.058l.2.176c.058.049.292.282.371.292a4.609,4.609,0,0,0,.467-1.928,5.235,5.235,0,0,0-.078-1.12A3.3,3.3,0,0,0,46.562,13.478Z" fill-rule="evenodd"/>
  </g>
</svg>
